<svg height="512" viewBox="0 0 64 64" width="512" xmlns="http://www.w3.org/2000/svg"><g id="copyright"><rect fill="#ffeb99" height="34" rx="4" width="58" x="3" y="22"/><path d="m26.73 40.27-23.73-12.27v-2a4 4 0 0 1 4-4h11a14 14 0 0 0 28 0h11a4 4 0 0 1 4 4v2l-23.73 12.27-5.27 2.73z" fill="#ffcd00"/><path d="m61 28v24a4 4 0 0 1 -4 4h-2a4 4 0 0 0 4-4v-22.97z" fill="#ffcd00"/><path d="m61 26v2l-2 1.03v-3.03a4 4 0 0 0 -4-4h2a4 4 0 0 1 4 4z" fill="#cca400"/><path d="m53 56h-42l15.73-15.73 5.27 2.73 5.27-2.73z" fill="#ffcd00"/><circle cx="32" cy="22" fill="#ff7956" r="14"/><path d="m46 22a14 14 0 0 1 -14 14c-.34 0-.67-.01-1-.04a14 14 0 0 0 0-27.92c.33-.03.66-.04 1-.04a14 14 0 0 1 14 14z" fill="#ff6243"/><path d="m40 15-8 14-8-8 7 2z" fill="#57a4ff"/><path d="m57 21h-10.051a14.981 14.981 0 0 0 -29.9 0h-10.049a5.006 5.006 0 0 0 -5 5v26a5.006 5.006 0 0 0 5 5h50a5.006 5.006 0 0 0 5-5v-26a5.006 5.006 0 0 0 -5-5zm-25-12a13 13 0 1 1 -13 13 13.015 13.015 0 0 1 13-13zm-25 14h10.051a14.981 14.981 0 0 0 29.9 0h10.049a3 3 0 0 1 3 3v1.391l-28 14.483-28-14.483v-1.391a3 3 0 0 1 3-3zm24.541 20.889a1 1 0 0 0 .918 0l4.624-2.389 13.503 13.5h-37.172l13.5-13.5zm-27.541 8.111v-22.356l21.053 10.889-14.467 14.467h-3.586a3 3 0 0 1 -3-3zm53 3h-3.586l-14.467-14.467 21.053-10.889v22.356a3 3 0 0 1 -3 3z"/><path d="m31.293 29.707a1 1 0 0 0 1.575-.211l8-14a1 1 0 0 0 -1.533-1.243l-8.588 7.635-6.472-1.85a1 1 0 0 0 -.982 1.669zm-.568-5.745a1 1 0 0 0 .94-.215l4.435-3.947-4.324 7.567-4.345-4.346z"/></g></svg>